# xmcd CD database file
#
# Track frame offsets:
#	150
#	19411
#	32874
#	49591
#	67315
#	86348
#	104232
#	119700
#	134408
#	151287
#	169627
#	189240
#	206715
#	225643
#	243522
#	259043
#	271206
#	290467
#	313356
#
# Disc length: 4452 seconds
#
# Revision: 0
# Processed by: cddbd v1.5.2PL0 Copyright (c) Steve Scherf et al.
# Submitted via: CDex 1.50
#
DISCID=21116213
DTITLE=Compilation - Las Grandes Sesiones De La Salsa 5 [CD2)
DYEAR=2006
DGENRE=Salsa
TTITLE0=Willie Sotelo and La Mundial/Son La Mundial
TTITLE1=Mickey Taveras/Pasa El Tiempo
TTITLE2=Lesly Daily/Celos
TTITLE3=Sonora Ponceña/Caprichiosa
TTITLE4=Edwin Rivera/Esa Mujer Me Vuelve Loco
TTITLE5=Choco Orta/El
TTITLE6=Chegui Ramos and Los Protagonistas/Anuncio Clasificado
TTITLE7=Doel/Duelale A Quien Le Duela
TTITLE8=Willie Rosario/Esperando LLamada
TTITLE9=La Tropa/Usted Abusò
TTITLE10=La Cosmopolita/El Divorcio
TTITLE11=Jose Alberto El Canario/Clavado En Un Bar
TTITLE12=Ismael Miranda/Un Mundo Raro
TTITLE13=Donando Flores/Vecina
TTITLE14=Roberto Delgado/Como Se Cura Una Herida
TTITLE15=Los Protagonistas/Protagonistas Tema
TTITLE16=Edward/Esa Nena
TTITLE17=Son Boricua/Vamonos P'al Monte
TTITLE18=Galera 7/Que Serà Lo Que Pelean
EXTD=YEAR: 2006
EXTT0=
EXTT1=
EXTT2=
EXTT3=
EXTT4=
EXTT5=
EXTT6=
EXTT7=
EXTT8=
EXTT9=
EXTT10=
EXTT11=
EXTT12=
EXTT13=
EXTT14=
EXTT15=
EXTT16=
EXTT17=
EXTT18=
PLAYORDER=
